<svg width="26" height="26" viewBox="0 0 26 26" fill="none" xmlns="http://www.w3.org/2000/svg">
<circle cx="13" cy="13" r="13" fill="#515151"/>
<path fill-rule="evenodd" clip-rule="evenodd" d="M19.562 12.0728C19.5846 12.2027 19.5959 12.3327 19.6072 12.4626C19.6241 12.6377 19.6298 12.8129 19.6298 12.9937C19.6298 15.8637 17.8049 18.3099 15.257 19.2365V18.3269C17.3247 17.4399 18.7823 15.3834 18.7823 12.9937C18.7823 12.5699 18.7371 12.1575 18.6467 11.7564C18.6185 11.6208 18.5846 11.4909 18.545 11.3609C18.5224 11.2762 18.4942 11.1914 18.4603 11.1067C18.4584 11.1002 18.4564 11.0937 18.4545 11.0871C18.4393 11.036 18.4232 10.9816 18.3981 10.9316C18.3586 10.8242 18.3134 10.7169 18.2626 10.6095C18.2343 10.5417 18.2061 10.4796 18.1722 10.4174C18.1439 10.3496 18.11 10.2875 18.0705 10.2254C18.014 10.118 17.9518 10.0107 17.884 9.90897C17.8162 9.79033 17.7315 9.67169 17.6467 9.5587C17.6072 9.5022 17.562 9.44571 17.5168 9.38921L17.5168 9.38921C17.4773 9.33271 17.4321 9.27622 17.3812 9.22537L16.3699 10.2367C16.449 10.3383 16.5281 10.44 16.5959 10.5474C16.6581 10.6265 16.7089 10.7169 16.7541 10.8016C16.788 10.8525 16.8163 10.9033 16.8389 10.9542C16.8954 11.0502 16.9405 11.1462 16.9857 11.2479C17.0196 11.327 17.0535 11.4061 17.0818 11.4852C17.1326 11.6208 17.1722 11.7564 17.2117 11.8976C17.2852 12.1632 17.3247 12.44 17.3417 12.7225L17.3417 12.7225C17.3473 12.8129 17.353 12.9033 17.353 12.9937C17.353 14.5699 16.5112 15.9597 15.257 16.7281V15.6829C16.0197 15.0332 16.5055 14.0727 16.5055 12.9937C16.5055 12.8637 16.4999 12.7338 16.4829 12.6095C16.4603 12.3722 16.4095 12.1406 16.336 11.9202C16.3304 11.8863 16.3191 11.8524 16.3021 11.8185C16.2739 11.7394 16.2456 11.6604 16.2061 11.5869C16.1948 11.5474 16.1778 11.5078 16.1553 11.4739C16.1327 11.4174 16.1044 11.3609 16.0649 11.3044C16.0366 11.2479 16.0084 11.1971 15.9745 11.1462C15.9293 11.0671 15.8784 10.988 15.8163 10.909L15.7654 10.8412L10.1045 16.5021L7.09327 19.5133L6.49441 18.9145L9.46611 15.9428L9.38701 15.8693H6.79384C6.5622 15.8693 6.37012 15.6772 6.37012 15.4456V10.5417C6.37012 10.3101 6.5622 10.118 6.79384 10.118H9.38701L13.5734 6.46836C13.6977 6.35536 13.8728 6.33277 14.0253 6.40056C14.1779 6.46836 14.2739 6.6209 14.2739 6.78474V11.1349L16.788 8.62086C16.6468 8.50222 16.4999 8.38358 16.3473 8.27623C16.2343 8.19149 16.1214 8.11804 16.0027 8.0446C15.7654 7.89771 15.5168 7.77342 15.257 7.66043V6.75084C15.4152 6.80733 15.5733 6.87513 15.7259 6.94292C15.8558 6.99942 15.9858 7.06722 16.1157 7.13501C16.2456 7.20281 16.3756 7.2819 16.4999 7.361C16.5507 7.38924 16.6016 7.42314 16.6524 7.45704C16.9123 7.62653 17.1552 7.81861 17.3869 8.022L18.9236 6.48531L19.5168 7.08417H19.5224L17.9801 8.62651C18.0535 8.7056 18.1213 8.7847 18.1835 8.86944C18.2965 9.00503 18.4038 9.14627 18.4998 9.29316C18.5507 9.36661 18.6015 9.4457 18.6467 9.5248C18.675 9.56435 18.6976 9.60389 18.7145 9.64344C18.8049 9.77902 18.8784 9.92591 18.9518 10.0728L18.9518 10.0728L18.9518 10.0728C19.0027 10.1802 19.0535 10.2875 19.0987 10.4005C19.1156 10.4344 19.1326 10.4739 19.1439 10.5078C19.1891 10.6152 19.2343 10.7282 19.2682 10.8412C19.2964 10.909 19.319 10.9824 19.336 11.0502C19.3699 11.1406 19.3925 11.231 19.4151 11.327C19.4829 11.57 19.5337 11.8185 19.562 12.0728ZM9.5452 15.0219C9.64689 15.0219 9.74859 15.0614 9.82203 15.1292L10.065 15.3439L13.4265 11.9824V7.71692L9.82203 10.8638C9.74294 10.9316 9.64689 10.9655 9.5452 10.9655H7.21756V15.0219H9.5452ZM11.3361 16.4568L13.4265 18.2816V14.3664L14.2739 13.519V19.2138C14.2739 19.3776 14.1779 19.5302 14.0253 19.598C13.9688 19.6262 13.9123 19.6375 13.8502 19.6375C13.7485 19.6375 13.6525 19.6036 13.5734 19.5358L10.7373 17.0556L11.3361 16.4568Z" fill="white"/>
</svg>
